<svg width="28" height="28" viewBox="0 0 28 28" fill="none" xmlns="http://www.w3.org/2000/svg">
<g id="Iconly/Bold/Discount">
<g id="Discount">
<path id="Discount_2" fill-rule="evenodd" clip-rule="evenodd" d="M23.7995 10.6693L24.6398 11.5093C25.305 12.1626 25.6668 13.0493 25.6668 13.9826C25.6785 14.9159 25.3167 15.8038 24.6631 16.4676C24.6553 16.4762 24.6475 16.4837 24.6398 16.4912C24.6359 16.495 24.632 16.4987 24.6281 16.5026L23.7995 17.3309C23.4727 17.6576 23.2859 18.1009 23.2859 18.5688V19.7693C23.2859 21.7059 21.7104 23.2821 19.773 23.2821H18.5709C18.1041 23.2821 17.6606 23.4676 17.3338 23.7943L16.4935 24.6343C15.8049 25.3238 14.9062 25.6609 14.0076 25.6609C13.1089 25.6609 12.2103 25.3238 11.5217 24.6471L10.6697 23.7943C10.3429 23.4676 9.89942 23.2821 9.43258 23.2821H8.23048C6.29311 23.2821 4.71754 21.7059 4.71754 19.7693V18.5688C4.71754 18.1009 4.53081 17.6576 4.20402 17.3193L3.36372 16.4909C1.99822 15.1271 1.98655 12.8976 3.35204 11.5221L4.20402 10.6693C4.53081 10.3426 4.71754 9.89928 4.71754 9.42095V8.23095C4.71754 6.29428 6.29311 4.72045 8.23048 4.72045H9.43258C9.89942 4.72045 10.3429 4.53262 10.6697 4.20595L11.51 3.36595C12.8755 1.99045 15.1046 1.99045 16.4818 3.35545L17.3338 4.20595C17.6606 4.53262 18.1041 4.72045 18.5709 4.72045H19.773C21.7104 4.72045 23.2859 6.29428 23.2859 8.23095V9.43378C23.2859 9.89928 23.4727 10.3426 23.7995 10.6693ZM10.9965 18.0193C11.2766 18.0193 11.5334 17.9143 11.7201 17.716L17.7189 11.7205C18.1158 11.3238 18.1158 10.6693 17.7189 10.2726C17.3221 9.87714 16.6802 9.87714 16.2834 10.2726L10.2846 16.2693C9.88777 16.666 9.88777 17.3193 10.2846 17.716C10.4713 17.9143 10.7281 18.0193 10.9965 18.0193ZM15.98 16.9926C15.98 17.5643 16.4351 18.0193 17.007 18.0193C17.5672 18.0193 18.0224 17.5643 18.0224 16.9926C18.0224 16.4338 17.5672 15.9776 17.007 15.9776C16.4351 15.9776 15.98 16.4338 15.98 16.9926ZM11.0081 9.98091C11.5683 9.98091 12.0235 10.4359 12.0235 10.9959C12.0235 11.5687 11.5683 12.0226 11.0081 12.0226C10.4479 12.0226 9.98108 11.5687 9.98108 10.9959C9.98108 10.4359 10.4479 9.98091 11.0081 9.98091Z" fill="#51A690"/>
</g>
</g>
</svg>
